<svg class="ldi-kpp0bq" width="200px"  height="200px"  xmlns="http://www.w3.org/2000/svg" xmlns:xlink="http://www.w3.org/1999/xlink" viewBox="0 0 100 100" preserveAspectRatio="xMidYMid" style="background: none;"><!--?xml version="1.0" encoding="utf-8"?--><!--Generator: Adobe Illustrator 21.0.0, SVG Export Plug-In . SVG Version: 6.00 Build 0)--><svg version="1.1" id="Layer_1" xmlns="http://www.w3.org/2000/svg" xmlns:xlink="http://www.w3.org/1999/xlink" x="0px" y="0px" viewBox="0 0 100 100" style="transform-origin: 50px 50px 0px;" xml:space="preserve"><g style="transform-origin: 50px 50px 0px; transform: scale(0.6);"><g style="transform-origin: 50px 50px 0px;"><style type="text/css" class="ld ld-spin" style="transform-origin: 50px 50px 0px; animation-duration: 3.5s; animation-delay: -3.5s;">.st0,.st1,.st2{fill:none;stroke:#333;stroke-width:3.5;stroke-linecap:round;stroke-miterlimit:10}.st1,.st2{fill:#f0af6b}.st2{fill:none;stroke-linejoin:round}.st3{fill:#e0e0e0;stroke:#333434}.st3,.st4,.st5,.st6{stroke-width:3.5;stroke-miterlimit:10}.st4{fill:#f3e4c7;stroke:#333}.st5,.st6{stroke-linejoin:round}.st5{stroke-linecap:round;fill:none;stroke:#fff}.st6{fill:#fff;stroke:#333}.st7{fill:#333}.st8{fill:#e0e0e0;stroke:#333}.st10,.st8,.st9{stroke-width:3.5;stroke-miterlimit:10}.st9{opacity:.2;stroke:#000}.st10{fill:none;stroke:#333}.st11{fill:#e0e0e0}.st12{fill:#666766}.st13{fill:#fff}.st14{fill:#c33837;stroke:#333}.st14,.st15,.st16,.st17{stroke-width:3.5;stroke-miterlimit:10}.st15{opacity:.2;stroke-linejoin:round;stroke:#000}.st16,.st17{fill:#f4e6c8;stroke:#333}.st17{stroke:#fff;stroke-linecap:round}.st18{fill:#849b87}.st19{opacity:.2}.st20{stroke-width:3.5;stroke-linejoin:round;stroke-miterlimit:10}.st20,.st21{fill:#e0e0e0;stroke:#333}.st21,.st22,.st23{stroke-width:3.5;stroke-linecap:round;stroke-linejoin:round}.st22{opacity:.2;stroke:#000}.st23{fill:#666;stroke:#333}.st24{fill:#d65a62}.st25{fill:#f0af6b;stroke:#333;stroke-linecap:round;stroke-linejoin:round}.st25,.st26,.st27{stroke-width:3.5;stroke-miterlimit:10}.st26{opacity:.2;stroke:#000;stroke-linecap:round;stroke-linejoin:round}.st27{fill:#a8b980}.st27,.st28,.st29{stroke:#333;stroke-linecap:round;stroke-linejoin:round}.st28{stroke-width:3.5;stroke-miterlimit:10;fill:#d65a62}.st29{fill:#ea7c60}.st29,.st30,.st31{stroke-width:3.5;stroke-miterlimit:10}.st30{stroke-linecap:round;fill:#e0e0e0;stroke:#fff}.st31{fill:#666766;stroke:#333}.st31,.st32,.st33,.st34{stroke-linejoin:round}.st32{stroke:#333;stroke-width:3.5;stroke-miterlimit:10;fill:none}.st33,.st34{fill:#67503b}.st33{stroke-width:3.5;stroke-miterlimit:10;stroke:#333}.st34{stroke:#fff;stroke-linecap:round}.st34,.st35,.st36{stroke-width:3.5;stroke-miterlimit:10}.st35{stroke:#333;stroke-linejoin:round;fill:#f47e5f}.st36{fill:#f4e6c8}.st36,.st37,.st38{stroke:#333;stroke-linejoin:round}.st37{stroke-width:3.5;stroke-miterlimit:10;fill:#f7b26a}.st38{fill:#333;stroke-linecap:round}.st38,.st39,.st40{stroke-width:3.5;stroke-miterlimit:10}.st39{stroke-linejoin:round;fill:none;stroke:#fff}.st40{fill:#feffff;stroke:#333}.st41{fill:#f0af6b}.st42{opacity:.3;fill:#f3e4c7}.st43,.st44{fill:#f0af6b;stroke-miterlimit:10}.st43{stroke-width:3.5;stroke:#333}.st44{stroke:#fff;stroke-linecap:round}.st44,.st45,.st46{stroke-width:3.5}.st45{stroke-miterlimit:10;fill:none;stroke:#fff}.st46{fill:#65503a;stroke:#333;stroke-linejoin:round}.st46,.st47,.st48{stroke-miterlimit:10}.st47{stroke:#333;stroke-width:3.5;fill:#ea7c60}.st48{fill:#a8b980}.st48,.st49,.st50,.st51{stroke:#333;stroke-width:3.5}.st49{fill:#76a0b7;stroke-miterlimit:10}.st50,.st51{stroke-linecap:round;stroke-linejoin:round}.st50{stroke-miterlimit:10;fill:#65503a}.st51{fill:#b93a38}.st51,.st52,.st53{stroke-miterlimit:10}.st52{fill:none;stroke-width:3.5;stroke-linecap:round;stroke:#fff}.st53{opacity:.2;stroke:#000}.st54,.st55{stroke:#333;stroke-linecap:round;stroke-linejoin:round}.st54{stroke-width:3.5;stroke-miterlimit:10;fill:#fff}.st55{fill:#666}.st55,.st56,.st57{stroke-width:3.5;stroke-miterlimit:10}.st56{stroke-linecap:round;stroke-linejoin:round;fill:#666;stroke:#fff}.st57{fill:#333;stroke:#333}.st58,.st59,.st60,.st61,.st62,.st63{stroke-width:3.5;stroke-linecap:round}.st58{stroke-miterlimit:10;fill:#f3e4c7;stroke:#fff}.st59,.st60,.st61,.st62,.st63{fill:none;stroke:#333;stroke-linejoin:round}.st60,.st61,.st62,.st63{stroke:#fff}.st61,.st62,.st63{fill:#f0af6b;stroke:#333}.st62,.st63{fill:#666;stroke:#fff}.st63{fill:#e0e0e0}.st64{fill:#fff;stroke:#333}.st64,.st65,.st66,.st67{stroke-width:3.5;stroke-miterlimit:10}.st65{fill:#666;stroke:#333}.st66,.st67{stroke:#000;stroke-linejoin:round}.st67{fill:#e15c64;stroke:#333}.st68{fill:#77a4bd}.st69{stroke-linejoin:round}.st69,.st70,.st71,.st72{fill:none;stroke:#fff;stroke-width:2;stroke-miterlimit:10}.st71,.st72{fill:#333;stroke-width:.3}.st72{fill:none;stroke:#333;stroke-width:2}.st73{fill:#acbd81;stroke:#333}.st73,.st74,.st75{stroke-width:3.5;stroke-miterlimit:10}.st74{fill:#849b87;stroke:#333}.st75{stroke:#b93a38}.st75,.st76{fill:none}.st77{fill:#f3e4c7}.st78{fill:#e15c64}.st79{fill:#f7b26a}.st80{fill:#f7faf8}.st81,.st82{fill:#f7b26a;stroke:#333;stroke-width:3.5;stroke-miterlimit:10}.st82{fill:#77a4bd}.st83{fill:#e15c64;stroke:#333}.st83,.st84,.st85{stroke-width:3.5;stroke-miterlimit:10}.st84{opacity:.2;stroke:#333}.st85{fill:#666}.st85,.st86,.st87{stroke:#333434}.st86{stroke-width:3.5;stroke-linejoin:round;stroke-miterlimit:10;fill:#65503a}.st87{fill:none;stroke-linecap:round}.st87,.st88,.st89{stroke-width:3.5;stroke-miterlimit:10}.st88{opacity:.2;stroke:#010101;fill:#010101}.st89{fill:#9ec4d2;stroke-linecap:round;stroke-linejoin:round}.st89,.st90,.st91{stroke:#333434}.st90{stroke-width:3.5;stroke-linecap:round;stroke-linejoin:round;stroke-miterlimit:10;fill:none}.st91{fill:#9ec4d2}.st91,.st92,.st93{stroke-width:3.5;stroke-miterlimit:10}.st92{fill:#77a0b7;stroke:#333434}.st93{stroke:#010101;stroke-linecap:round;stroke-linejoin:round}.st93,.st94{opacity:.2;fill:#010101}.st95{fill:#333434}.st96,.st97{fill:none;stroke:#fff;stroke-width:1.5;stroke-linecap:round;stroke-miterlimit:10}.st97{fill:#a8b980;stroke-width:3.5}</style><g class="ld ld-spin" style="transform-origin: 50px 50px 0px; animation-duration: 3.5s; animation-delay: -3.25s;"><path class="st11" d="M82.983,40.919c2.957,2.897,5.63,6.003,8.017,9.276c-1.206-8.835-5.967-17.157-13.871-22.641 c-1.011-0.701-2.048-1.336-3.105-1.91c4.009,1.03,7.877,2.383,11.581,4.025c-5.462-7.049-13.746-11.875-23.333-12.672 c-1.226-0.102-2.442-0.133-3.644-0.102c3.987-1.112,8.014-1.875,12.041-2.305c-8.255-3.374-17.842-3.411-26.543,0.692 c-1.113,0.525-2.181,1.105-3.206,1.734c2.897-2.957,6.003-5.63,9.276-8.017c-8.836,1.206-17.157,5.967-22.641,13.871 c-0.701,1.011-1.336,2.048-1.91,3.105c1.03-4.009,2.383-7.877,4.025-11.581c-7.049,5.462-11.875,13.746-12.672,23.333 c-0.102,1.226-0.133,2.442-0.102,3.644c-1.112-3.987-1.875-8.014-2.305-12.041c-3.374,8.255-3.411,17.842,0.692,26.543 c0.525,1.113,1.105,2.181,1.734,3.207c-2.957-2.897-5.63-6.003-8.017-9.276c1.206,8.835,5.967,17.157,13.871,22.641 c1.011,0.701,2.048,1.336,3.105,1.91c-4.009-1.03-7.877-2.383-11.581-4.025c5.462,7.049,13.746,11.875,23.333,12.672 c1.226,0.102,2.442,0.133,3.644,0.102c-3.987,1.112-8.014,1.875-12.042,2.305c8.255,3.374,17.842,3.411,26.543-0.692 c1.113-0.525,2.181-1.105,3.206-1.734c-2.897,2.957-6.003,5.63-9.276,8.017c8.836-1.206,17.157-5.967,22.641-13.871 c0.701-1.011,1.336-2.048,1.91-3.105c-1.03,4.009-2.383,7.877-4.025,11.581c7.049-5.462,11.875-13.746,12.672-23.333 c0.102-1.226,0.133-2.442,0.102-3.644c1.112,3.987,1.875,8.014,2.305,12.041c3.374-8.255,3.411-17.842-0.692-26.543 C84.192,43.013,83.612,41.944,82.983,40.919z" fill="#444444" style="fill: rgb(68, 68, 68);"></path></g><g class="ld ld-spin" style="transform-origin: 50px 50px 0px; animation-duration: 3.5s; animation-delay: -3s;"><path class="st12" d="M78.961,42.027c2.596,2.544,4.944,5.271,7.039,8.145c-1.059-7.758-5.239-15.064-12.18-19.88 c-0.888-0.616-1.798-1.173-2.726-1.677c3.52,0.905,6.917,2.093,10.168,3.534c-4.796-6.189-12.07-10.427-20.488-11.127 c-1.077-0.09-2.144-0.117-3.199-0.089c3.501-0.976,7.036-1.646,10.573-2.024c-7.248-2.962-15.666-2.995-23.306,0.608 c-0.977,0.461-1.915,0.971-2.815,1.522c2.544-2.596,5.271-4.944,8.145-7.039c-7.758,1.059-15.065,5.239-19.88,12.18 c-0.616,0.888-1.173,1.798-1.677,2.726c0.905-3.52,2.093-6.917,3.534-10.168c-6.189,4.796-10.427,12.07-11.127,20.488 c-0.09,1.077-0.117,2.144-0.089,3.199c-0.976-3.501-1.646-7.036-2.024-10.573c-2.962,7.248-2.995,15.666,0.608,23.306 c0.461,0.977,0.971,1.915,1.523,2.815c-2.596-2.544-4.944-5.271-7.039-8.145c1.059,7.758,5.239,15.065,12.18,19.88 c0.888,0.616,1.798,1.173,2.726,1.677c-3.52-0.905-6.917-2.093-10.168-3.534c4.796,6.189,12.07,10.427,20.488,11.127 c1.077,0.09,2.144,0.117,3.2,0.089c-3.501,0.977-7.036,1.646-10.573,2.024c7.248,2.962,15.666,2.995,23.306-0.608 c0.977-0.461,1.915-0.971,2.815-1.522c-2.544,2.596-5.271,4.944-8.145,7.039c7.758-1.059,15.065-5.239,19.88-12.18 c0.616-0.888,1.173-1.798,1.677-2.726c-0.905,3.52-2.093,6.917-3.534,10.168c6.189-4.796,10.427-12.07,11.127-20.488 c0.09-1.077,0.117-2.144,0.089-3.2c0.976,3.501,1.646,7.036,2.024,10.573c2.962-7.248,2.995-15.666-0.608-23.306 C80.023,43.865,79.513,42.927,78.961,42.027z" fill="#222222" style="fill: rgb(34, 34, 34);"></path></g><g class="ld ld-spin" style="transform-origin: 50px 50px 0px; animation-duration: 3.5s; animation-delay: -2.75s;"><path class="st7" d="M75.009,43.115c2.242,2.196,4.269,4.551,6.078,7.033c-0.914-6.699-4.524-13.009-10.518-17.167 c-0.766-0.532-1.553-1.013-2.354-1.448c3.04,0.781,5.973,1.807,8.781,3.052c-4.141-5.345-10.423-9.004-17.692-9.608 c-0.93-0.077-1.851-0.101-2.763-0.077c3.023-0.843,6.076-1.422,9.13-1.748c-6.259-2.558-13.528-2.586-20.126,0.525 c-0.844,0.398-1.654,0.838-2.431,1.315c2.196-2.242,4.551-4.269,7.033-6.078c-6.699,0.914-13.009,4.524-17.167,10.518 c-0.532,0.766-1.013,1.553-1.448,2.354c0.781-3.04,1.807-5.973,3.052-8.781c-5.345,4.141-9.004,10.423-9.608,17.692 c-0.077,0.93-0.101,1.852-0.077,2.763c-0.843-3.023-1.422-6.076-1.748-9.13c-2.558,6.259-2.586,13.528,0.525,20.126 c0.398,0.844,0.838,1.654,1.315,2.431c-2.242-2.196-4.269-4.551-6.078-7.033c0.914,6.699,4.524,13.009,10.518,17.167 c0.767,0.532,1.553,1.013,2.354,1.448c-3.04-0.781-5.973-1.807-8.781-3.052c4.141,5.345,10.423,9.004,17.692,9.608 c0.93,0.077,1.851,0.101,2.763,0.077c-3.023,0.843-6.076,1.422-9.13,1.748c6.259,2.558,13.528,2.586,20.126-0.525 c0.844-0.398,1.654-0.838,2.431-1.315c-2.196,2.242-4.551,4.269-7.033,6.078c6.699-0.914,13.009-4.524,17.167-10.518 c0.532-0.766,1.013-1.553,1.448-2.354c-0.781,3.04-1.807,5.973-3.052,8.781c5.345-4.141,9.004-10.423,9.608-17.692 c0.077-0.93,0.101-1.851,0.077-2.763c0.843,3.023,1.422,6.076,1.748,9.13c2.558-6.259,2.586-13.528-0.525-20.126 C75.926,44.702,75.486,43.892,75.009,43.115z" fill="#111111" style="fill: rgb(17, 17, 17);"></path></g><g class="ld ld-spin" style="transform-origin: 50px 50px 0px; animation-duration: 3.5s; animation-delay: -2.5s;"><circle cx="50" cy="50" r="20" fill="#000000" style="fill: rgb(0, 0, 0);"></circle></g><metadata xmlns:d="https://loading.io/stock/" class="ld ld-spin" style="transform-origin: 50px 50px 0px; animation-duration: 3.5s; animation-delay: -2.25s;">
<d:name class="ld ld-spin" style="transform-origin: 50px 50px 0px; animation-duration: 3.5s; animation-delay: -2s;">blackhole</d:name>
<d:tags class="ld ld-spin" style="transform-origin: 50px 50px 0px; animation-duration: 3.5s; animation-delay: -1.75s;">blackhole,wormhole,pit,fall,dig,warp,whirl,spiral</d:tags>
<d:license class="ld ld-spin" style="transform-origin: 50px 50px 0px; animation-duration: 3.5s; animation-delay: -1.5s;">cc-by</d:license>
<d:slug class="ld ld-spin" style="transform-origin: 50px 50px 0px; animation-duration: 3.5s; animation-delay: -1.25s;">kpp0bq</d:slug>
</metadata></g></g><style type="text/css" class="ld ld-spin" style="transform-origin: 50px 50px 0px; animation-duration: 3.5s; animation-delay: -1s;">path,ellipse,circle,rect,polygon,polyline,line { stroke-width: 0; }@keyframes ld-spin {
  0% {
    -webkit-transform: rotate(0);
    transform: rotate(0);
    animation-timing-function: cubic-bezier(0.55, 0.055, 0.675, 0.19);
  }
  50% {
    -webkit-transform: rotate(180deg);
    transform: rotate(180deg);
    animation-timing-function: cubic-bezier(0.215, 0.61, 0.355, 1);
  }
  100% {
    -webkit-transform: rotate(360deg);
    transform: rotate(360deg);
  }
}
@-webkit-keyframes ld-spin {
  0% {
    -webkit-transform: rotate(0);
    transform: rotate(0);
    animation-timing-function: cubic-bezier(0.55, 0.055, 0.675, 0.19);
  }
  50% {
    -webkit-transform: rotate(180deg);
    transform: rotate(180deg);
    animation-timing-function: cubic-bezier(0.215, 0.61, 0.355, 1);
  }
  100% {
    -webkit-transform: rotate(360deg);
    transform: rotate(360deg);
  }
}
.ld.ld-spin {
  -webkit-animation: ld-spin 1s infinite;
  animation: ld-spin 1s infinite;
}
</style></svg></svg>