<svg class="ldi-eq498l" width="200px"  height="200px"  xmlns="http://www.w3.org/2000/svg" xmlns:xlink="http://www.w3.org/1999/xlink" viewBox="0 0 100 100" preserveAspectRatio="xMidYMid" style="background: none;"><!--?xml version="1.0" encoding="utf-8"?--><!--Generator: Adobe Illustrator 21.0.0, SVG Export Plug-In . SVG Version: 6.00 Build 0)--><svg version="1.1" id="Layer_1" xmlns="http://www.w3.org/2000/svg" xmlns:xlink="http://www.w3.org/1999/xlink" x="0px" y="0px" viewBox="0 0 100 100" style="transform-origin: 50px 50px 0px;" xml:space="preserve"><g style="transform-origin: 50px 50px 0px; transform: scale(0.6);"><g style="transform-origin: 50px 50px 0px;"><style type="text/css" class="ld ldt-bounce-in" style="transform-origin: 50px 50px 0px; animation-duration: 1s; animation-delay: 0s;">.st0{fill:#333}.st1,.st2{stroke-width:3.5;stroke-miterlimit:10}.st1{fill:url(#SVGID_1_);stroke:#333}.st2{opacity:.5;stroke:#000}.st3{fill:#666766;stroke:#333}.st3,.st4,.st5{stroke-width:3.5;stroke-miterlimit:10}.st4{opacity:.5;stroke-linejoin:round;stroke:#000}.st5{fill:none;stroke:#333;stroke-linecap:round}.st6{opacity:.5}.st7,.st8{stroke:#333;stroke-width:3.5}.st7{stroke-miterlimit:10;fill:none}.st8{fill:#849b87}.st10,.st11,.st8,.st9{stroke-miterlimit:10}.st9{opacity:.2;stroke-width:3.5;stroke-linejoin:round;stroke:#000}.st10,.st11{stroke:#333}.st10{stroke-width:3.5;fill:#e15c64}.st11{fill:#fff}.st11,.st12,.st13{stroke-width:3.5}.st12{opacity:.2;stroke-linecap:round;stroke-linejoin:round;stroke-miterlimit:10;stroke:#000}.st13{fill:#acbd81;stroke:#333}.st13,.st14,.st15,.st16{stroke-miterlimit:10}.st14{fill:#e0e0e0;stroke:#333;stroke-width:5.6375}.st15,.st16{stroke-width:5.638;stroke-linejoin:round}.st15{fill:#f0d848;stroke:#333}.st16{opacity:.2;stroke:#000;stroke-linecap:round}.st17,.st18,.st19{fill:#f4e6c8;stroke:#333;stroke-width:3.5;stroke-miterlimit:10}.st18,.st19{stroke:#fff;stroke-linecap:round}.st19{stroke:#f47e5f}.st20{fill:#acbd81}.st21{fill:#e0e0e0;stroke:#333;stroke-width:3.5;stroke-miterlimit:10}.st22{fill:#b92025}.st23,.st24{fill:none;stroke:#333;stroke-width:9;stroke-linecap:round;stroke-miterlimit:10}.st24{stroke-width:6}.st25{fill:#a0c8d7}.st26{opacity:.2}.st27,.st28{stroke-width:3.5}.st27{opacity:.2;stroke:#000;stroke-miterlimit:10}.st28{fill-rule:evenodd;clip-rule:evenodd;fill:#ffdc6e}.st28,.st29,.st30{stroke:#333;stroke-miterlimit:10}.st29{stroke-linecap:round;fill:none;stroke-width:2.8104}.st30{fill:#fff;stroke-width:3.7002}.st31,.st32{fill-rule:evenodd;clip-rule:evenodd;stroke-width:3.5}.st31{fill:none;stroke-linecap:round;stroke-miterlimit:10;stroke:#fff}.st32{opacity:.2;stroke:#000;stroke-linejoin:round}.st32,.st33,.st34,.st35{stroke-miterlimit:10}.st33{fill:#849b87;stroke:#333;stroke-width:3.7002}.st34,.st35{stroke-width:3.7}.st34{fill:#849b87;stroke-linecap:round;stroke:#fff}.st35{opacity:.2;stroke:#000}.st36{fill:#e0e0e0}.st37{fill:#fff}.st38,.st39{fill:#acbd81;stroke:#333;stroke-width:3.5;stroke-linecap:round;stroke-linejoin:round;stroke-miterlimit:10}.st39{fill:none}.st40{fill:#f4e6c8}.st41{fill:#acbd81;stroke:#fff;stroke-width:3.5;stroke-linecap:round;stroke-linejoin:round;stroke-miterlimit:10}.st42{fill:#67503b}.st43{fill:#a0c8d7;stroke:#333}.st43,.st44,.st45,.st46,.st47,.st48,.st49{stroke-width:3.5;stroke-miterlimit:10}.st44{stroke-linecap:round;fill:#a0c8d7;stroke:#fff}.st45,.st46,.st47,.st48,.st49{fill:#f47e5f;stroke:#333}.st46,.st47,.st48,.st49{fill:none;stroke:#fff;stroke-linecap:round}.st47,.st48,.st49{fill:#e0e0e0;stroke:#333}.st48,.st49{fill:#fff}.st49{fill:#e0e0e0;stroke:#fff}.st50{fill:#fcdc4f}.st51{fill:#407cae}.st52{fill:none}.st53{fill:#fefefe}.st54{fill:none;stroke:#a0c8d7;stroke-width:3.5;stroke-miterlimit:10}.st55,.st56{stroke-linecap:round}.st55{stroke:#fff;stroke-width:2.5;stroke-miterlimit:10;fill:none}.st56{fill:#f4e6c8}.st56,.st57,.st58{stroke:#333;stroke-width:3.5;stroke-miterlimit:10}.st57{stroke-linecap:round;fill:#f47e5f}.st58{fill:#f7b26a}.st59{fill:#849b87}.st60{fill:#e15c64}.st61,.st62,.st63,.st64{fill:none;stroke:#fff;stroke-width:2.1185;stroke-miterlimit:10}.st62,.st63,.st64{stroke-width:2.3545}.st63,.st64{fill:#fff}.st64{fill:#f4e6c8;stroke:#333;stroke-width:5.6375}.st65{fill:#c33837;stroke:#333;stroke-width:5.638;stroke-linecap:round;stroke-linejoin:round}.st65,.st66,.st67,.st68{stroke-miterlimit:10}.st66{opacity:.2;stroke:#000;stroke-linejoin:round;stroke-width:5.638}.st67,.st68{stroke-width:3.5}.st67{fill:#f47e5f;stroke-linecap:round;stroke:#fff}.st68{stroke:#333}.st69{fill:#070404}.st70{fill:#c42026}.st71{fill:#010101}.st72{opacity:.4}.st73{fill:#666766}.st74,.st75,.st76,.st77{fill:none;stroke-miterlimit:10}.st74{stroke:#fff;stroke-linecap:round;stroke-width:3}.st75,.st76,.st77{stroke-width:3.5}.st75{stroke-linejoin:round;stroke:#333}.st76,.st77{stroke:#e0e0e0}.st77{stroke:#e15c64}.st78{fill:none;stroke:#77a4bd}.st78,.st79,.st80{stroke-width:3.5;stroke-miterlimit:10}.st79{stroke-linejoin:round;fill:none;stroke:#f4e6c8}.st80{fill:#acbd81;stroke:#fff;stroke-linecap:round}.st81{stroke:#333434;stroke-linejoin:round}.st81,.st82,.st83{fill:#77a4bd;stroke-width:3.5;stroke-miterlimit:10}.st82{stroke-linejoin:round;stroke:#fff}.st83{stroke:#e0e0e0}.st83,.st84,.st85,.st86{stroke-linejoin:round}.st84{fill:none;stroke-width:3.5;stroke-linecap:round;stroke-miterlimit:10;stroke:#e0e0e0}.st85,.st86{stroke:#333}.st85{stroke-width:3.5;stroke-miterlimit:10;fill:#e0e0e0}.st86{fill:#e15c64}.st86,.st87,.st88,.st89,.st90,.st91{stroke-width:3.5;stroke-miterlimit:10}.st87{fill:#f7b26a;stroke-linecap:round;stroke:#fff}.st88,.st89,.st90,.st91{stroke:#000}.st89,.st90,.st91{fill-rule:evenodd;clip-rule:evenodd;fill:#fff;stroke:#333}.st90,.st91{fill:#e0e0e0}.st91{fill:none;stroke:#fff;stroke-linejoin:round}.st91,.st92,.st93{stroke-linecap:round}.st92{stroke-width:3.5;stroke-linejoin:round;stroke-miterlimit:10;fill:none;stroke:#fff}.st93{fill:#67503b;stroke:#333}.st93,.st94,.st95,.st96{stroke-width:3.5;stroke-miterlimit:10}.st94{stroke-linecap:round;fill:#67503b;stroke:#fff}.st95,.st96{fill:#333;stroke:#333}.st96{fill:url(#SVGID_2_)}.st97{fill:#f47e5f}.st98,.st99{stroke-miterlimit:10}.st98{opacity:.2;stroke-width:3.5;stroke-linecap:round;stroke:#000}.st99{fill:#fff;stroke:#333}.st100{opacity:.3}.st101{stroke:#333;stroke-miterlimit:10}.st102{fill:#e6e6e6}</style><g style="transform-origin: 50px 50px 0px;"><g class="ld ldt-bounce-in" style="transform-origin: 50px 50px 0px; animation-duration: 1s; animation-delay: 0.0434783s;"><path class="st17" d="M44.435,65.775L30.797,43.852c-0.898-1.443-2.795-1.885-4.239-0.987l0,0 c-1.443,0.898-1.885,2.795-0.987,4.239l13.564,21.804c-1.391,1.073-1.771,3.046-0.788,4.558c1.032,1.588,3.282,2.021,4.832,0.933 c0.702-0.493,1.164-1.21,1.354-1.992c1.016,0.227,2.136-0.003,3.019-0.779c1.057-0.928,1.434-2.474,0.919-3.782 C47.8,66.138,46.036,65.366,44.435,65.775z" fill="rgb(244, 230, 200)" stroke="rgb(51, 51, 51)" style="fill: rgb(244, 230, 200); stroke: rgb(51, 51, 51);"></path></g><g class="ld ldt-bounce-in" style="transform-origin: 50px 50px 0px; animation-duration: 1s; animation-delay: 0.0869565s;"><path class="st58" d="M38.988,34.222c6.202,9.969,5.499,21.616-1.57,26.014s-17.828-0.119-24.03-10.088S9.931,31.813,17,27.415 S32.786,24.252,38.988,34.222z" stroke="rgb(51, 51, 51)" fill="rgb(247, 178, 106)" style="stroke: rgb(51, 51, 51); fill: rgb(247, 178, 106);"></path></g></g><g class="ld ldt-bounce-in" style="transform-origin: 50px 50px 0px; animation-duration: 1s; animation-delay: 0.130435s;"><path class="st9" d="M48.472,67.845c-0.673-1.707-2.437-2.479-4.037-2.07l-4.67-7.507c4.789-5.311,4.651-15.321-0.777-24.046 c-4.684-7.529-10.801-10.07-16.561-8.972c4.149,0.786,8.22,3.602,11.561,8.972c5.428,8.725,5.567,18.736,0.777,24.046l4.67,7.507 c1.6-0.409,3.364,0.363,4.037,2.07c0.516,1.308,0.138,2.854-0.919,3.782c-0.884,0.776-2.003,1.006-3.019,0.779 c-0.135,0.558-0.415,1.079-0.816,1.513c1.134,1.201,3.075,1.453,4.462,0.479c0.702-0.493,1.164-1.21,1.354-1.992 c1.016,0.227,2.136-0.003,3.019-0.779C48.61,70.699,48.988,69.153,48.472,67.845z" fill="rgb(0, 0, 0)" stroke="rgb(0, 0, 0)" style="fill: rgb(0, 0, 0); stroke: rgb(0, 0, 0);"></path></g><g style="transform-origin: 50px 50px 0px;"><g class="ld ldt-bounce-in" style="transform-origin: 50px 50px 0px; animation-duration: 1s; animation-delay: 0.173913s;"><path class="st45" d="M59.028,37.017l-0.193,6.056l-0.187,5.845l-0.11,3.439l-0.077,2.42l-0.086,2.707l-0.077,2.42l-0.286,8.952 c-0.025,0.781,0.907,1.203,1.477,0.668l7.738-7.26l6.075-5.699l9.546-8.955l6.515-6.112c0.921-0.864,0.93-2.323,0.021-3.198v0 c-0.161-0.155-0.329-0.298-0.492-0.45c-0.398-0.372-0.796-0.746-1.204-1.101c-0.169-0.147-0.345-0.283-0.516-0.427 c-0.411-0.346-0.821-0.694-1.241-1.023c-0.164-0.129-0.334-0.246-0.499-0.372c-0.435-0.331-0.871-0.663-1.315-0.976 c-0.15-0.105-0.304-0.201-0.454-0.304c-0.469-0.322-0.939-0.642-1.417-0.944c-0.123-0.078-0.249-0.147-0.373-0.224 c-0.511-0.316-1.024-0.627-1.546-0.921c-0.105-0.059-0.213-0.112-0.318-0.17c-0.545-0.301-1.093-0.596-1.648-0.873 c-0.079-0.039-0.159-0.074-0.237-0.112c-0.586-0.288-1.174-0.566-1.77-0.827c-0.054-0.024-0.109-0.044-0.163-0.067 c-0.622-0.27-1.249-0.528-1.88-0.768c-0.032-0.012-0.065-0.023-0.097-0.035c-0.655-0.247-1.314-0.481-1.978-0.696 c-0.012-0.004-0.025-0.007-0.037-0.011c-3.426-1.109-6.962-1.797-10.527-2.06c-1.247-0.092-2.316,0.888-2.356,2.138L59.028,37.017z " stroke="rgb(51, 51, 51)" fill="rgb(244, 126, 95)" style="stroke: rgb(51, 51, 51); fill: rgb(244, 126, 95);"></path></g><g class="ld ldt-bounce-in" style="transform-origin: 50px 50px 0px; animation-duration: 1s; animation-delay: 0.217391s;"><path class="st58" d="M58.835,43.074l-0.187,5.845l-0.11,3.439l-0.077,2.42l-0.086,2.707l-0.077,2.42l-0.286,8.952 c-0.025,0.781,0.907,1.203,1.477,0.668l7.738-7.26l6.075-5.699l9.546-8.955c-6.443-6.868-15.094-10.417-23.821-10.593 L58.835,43.074z" stroke="rgb(51, 51, 51)" fill="rgb(247, 178, 106)" style="stroke: rgb(51, 51, 51); fill: rgb(247, 178, 106);"></path></g><g class="ld ldt-bounce-in" style="transform-origin: 50px 50px 0px; animation-duration: 1s; animation-delay: 0.26087s;"><path class="st59" d="M68.756,57.846c-1.382,1.315-1.934,3.077-1.528,4.419l6.075-5.699C71.977,56.057,70.159,56.511,68.756,57.846 z" fill="rgb(132, 155, 135)" style="fill: rgb(132, 155, 135);"></path></g><g class="ld ldt-bounce-in" style="transform-origin: 50px 50px 0px; animation-duration: 1s; animation-delay: 0.304348s;"><path class="st59" d="M64.26,47.897c1.993-1.833,2.506-4.518,1.145-5.997c-1.36-1.479-4.079-1.192-6.072,0.641 c-0.183,0.169-0.341,0.351-0.499,0.533l-0.187,5.845C60.099,49.93,62.468,49.545,64.26,47.897z" fill="rgb(132, 155, 135)" style="fill: rgb(132, 155, 135);"></path></g><g class="ld ldt-bounce-in" style="transform-origin: 50px 50px 0px; animation-duration: 1s; animation-delay: 0.347826s;"><path class="st0" d="M62.082,59.021c1.576-1.478,1.655-3.963,0.177-5.539c-0.983-1.048-2.41-1.419-3.72-1.124l-0.077,2.42 c0.671-0.455,1.592-0.374,2.164,0.236c0.634,0.675,0.6,1.74-0.076,2.374c-0.61,0.572-1.534,0.595-2.175,0.097l-0.077,2.42 C59.587,60.283,61.033,60.004,62.082,59.021z" fill="rgb(51, 51, 51)" style="fill: rgb(51, 51, 51);"></path></g><g class="ld ldt-bounce-in" style="transform-origin: 50px 50px 0px; animation-duration: 1s; animation-delay: 0.391304s;"><path class="st60" d="M75.343,50.034l-2.466-9.001c-0.209-0.764-1.156-1.062-1.746-0.534c-1.559,1.393-2.25,3.836-1.58,6.28 c0.674,2.459,2.532,4.215,4.597,4.605C74.911,51.529,75.548,50.783,75.343,50.034z" fill="rgb(225, 92, 100)" style="fill: rgb(225, 92, 100);"></path></g><g class="ld ldt-bounce-in" style="transform-origin: 50px 50px 0px; animation-duration: 1s; animation-delay: 0.434783s;"><path class="st60" d="M67.35,52.022l-4.337-1.914c-0.873-0.385-1.767,0.466-1.447,1.364c0.361,1.015,1.196,1.93,2.358,2.443 c1.163,0.513,2.401,0.512,3.394,0.095C68.197,53.641,68.222,52.407,67.35,52.022z" fill="rgb(225, 92, 100)" style="fill: rgb(225, 92, 100);"></path></g></g><g class="ld ldt-bounce-in" style="transform-origin: 50px 50px 0px; animation-duration: 1s; animation-delay: 0.478261s;"><path class="st27" d="M89.384,38.3c-0.161-0.155-0.329-0.298-0.492-0.45c-0.398-0.372-0.796-0.746-1.204-1.101 c-0.169-0.147-0.345-0.283-0.516-0.427c-0.411-0.346-0.821-0.694-1.241-1.023c-0.164-0.129-0.334-0.246-0.499-0.372 c-0.435-0.331-0.871-0.663-1.315-0.976c-0.149-0.105-0.304-0.201-0.454-0.304c-0.298-0.204-0.599-0.401-0.9-0.599l-5.263,7.738 l-7.963,11.709l-5.068,7.452l-6.353,9.341c0.25,0.481,0.922,0.663,1.374,0.239l7.738-7.26l6.075-5.699l9.546-8.955l6.515-6.112 C90.284,40.635,90.294,39.176,89.384,38.3z" fill="rgb(0, 0, 0)" stroke="rgb(0, 0, 0)" style="fill: rgb(0, 0, 0); stroke: rgb(0, 0, 0);"></path></g><metadata xmlns:d="https://loading.io/stock/" class="ld ldt-bounce-in" style="transform-origin: 50px 50px 0px; animation-duration: 1s; animation-delay: 0.521739s;">
<d:name class="ld ldt-bounce-in" style="transform-origin: 50px 50px 0px; animation-duration: 1s; animation-delay: 0.565217s;">food</d:name>
<d:tags class="ld ldt-bounce-in" style="transform-origin: 50px 50px 0px; animation-duration: 1s; animation-delay: 0.608696s;">food,hackathon,party,dinner,fried chicken,pizza,pizzahut,domino's</d:tags>
<d:license class="ld ldt-bounce-in" style="transform-origin: 50px 50px 0px; animation-duration: 1s; animation-delay: 0.652174s;">cc-by</d:license>
<d:slug class="ld ldt-bounce-in" style="transform-origin: 50px 50px 0px; animation-duration: 1s; animation-delay: 0.695652s;">eq498l</d:slug>
</metadata></g></g><style type="text/css" class="ld ldt-bounce-in" style="transform-origin: 50px 50px 0px; animation-duration: 1s; animation-delay: 0.73913s;">path,ellipse,circle,rect,polygon,polyline,line { stroke-width: 0; }@keyframes ldt-bounce-in {
  0% {
    -webkit-transform: scale(0);
    transform: scale(0);
  }
  5% {
    -webkit-transform: scale(0.0846);
    transform: scale(0.0846);
  }
  6% {
    -webkit-transform: scale(0.191);
    transform: scale(0.191);
  }
  7% {
    -webkit-transform: scale(0.3255);
    transform: scale(0.3255);
  }
  8% {
    -webkit-transform: scale(0.4804);
    transform: scale(0.4804);
  }
  9% {
    -webkit-transform: scale(0.646);
    transform: scale(0.646);
  }
  10% {
    -webkit-transform: scale(0.8116);
    transform: scale(0.8116);
  }
  11% {
    -webkit-transform: scale(0.9665);
    transform: scale(0.9665);
  }
  12% {
    -webkit-transform: scale(1.1);
    transform: scale(1.1);
  }
  13% {
    -webkit-transform: scale(1.2069);
    transform: scale(1.2069);
  }
  14% {
    -webkit-transform: scale(1.2796);
    transform: scale(1.2796);
  }
  19% {
    -webkit-transform: scale(1.1558);
    transform: scale(1.1558);
  }
  20% {
    -webkit-transform: scale(1.07);
    transform: scale(1.07);
  }
  21% {
    -webkit-transform: scale(0.9823);
    transform: scale(0.9823);
  }
  22% {
    -webkit-transform: scale(0.901);
    transform: scale(0.901);
  }
  23% {
    -webkit-transform: scale(0.8328);
    transform: scale(0.8328);
  }
  25% {
    -webkit-transform: scale(0.7551);
    transform: scale(0.7551);
  }
  29% {
    -webkit-transform: scale(0.8516);
    transform: scale(0.8516);
  }
  31% {
    -webkit-transform: scale(0.973);
    transform: scale(0.973);
  }
  33% {
    -webkit-transform: scale(1.0857);
    transform: scale(1.0857);
  }
  35% {
    -webkit-transform: scale(1.1538);
    transform: scale(1.1538);
  }
  40% {
    -webkit-transform: scale(1.0771);
    transform: scale(1.0771);
  }
  42% {
    -webkit-transform: scale(0.9954);
    transform: scale(0.9954);
  }
  45% {
    -webkit-transform: scale(0.9057);
    transform: scale(0.9057);
  }
  52% {
    -webkit-transform: scale(0.9908);
    transform: scale(0.9908);
  }
  56% {
    -webkit-transform: scale(1.0623);
    transform: scale(1.0623);
  }
  64% {
    -webkit-transform: scale(0.9845);
    transform: scale(0.9845);
  }
  100% {
    -webkit-transform: scale(1);
    transform: scale(1);
  }
}
@-webkit-keyframes ldt-bounce-in {
  0% {
    -webkit-transform: scale(0);
    transform: scale(0);
  }
  5% {
    -webkit-transform: scale(0.0846);
    transform: scale(0.0846);
  }
  6% {
    -webkit-transform: scale(0.191);
    transform: scale(0.191);
  }
  7% {
    -webkit-transform: scale(0.3255);
    transform: scale(0.3255);
  }
  8% {
    -webkit-transform: scale(0.4804);
    transform: scale(0.4804);
  }
  9% {
    -webkit-transform: scale(0.646);
    transform: scale(0.646);
  }
  10% {
    -webkit-transform: scale(0.8116);
    transform: scale(0.8116);
  }
  11% {
    -webkit-transform: scale(0.9665);
    transform: scale(0.9665);
  }
  12% {
    -webkit-transform: scale(1.1);
    transform: scale(1.1);
  }
  13% {
    -webkit-transform: scale(1.2069);
    transform: scale(1.2069);
  }
  14% {
    -webkit-transform: scale(1.2796);
    transform: scale(1.2796);
  }
  19% {
    -webkit-transform: scale(1.1558);
    transform: scale(1.1558);
  }
  20% {
    -webkit-transform: scale(1.07);
    transform: scale(1.07);
  }
  21% {
    -webkit-transform: scale(0.9823);
    transform: scale(0.9823);
  }
  22% {
    -webkit-transform: scale(0.901);
    transform: scale(0.901);
  }
  23% {
    -webkit-transform: scale(0.8328);
    transform: scale(0.8328);
  }
  25% {
    -webkit-transform: scale(0.7551);
    transform: scale(0.7551);
  }
  29% {
    -webkit-transform: scale(0.8516);
    transform: scale(0.8516);
  }
  31% {
    -webkit-transform: scale(0.973);
    transform: scale(0.973);
  }
  33% {
    -webkit-transform: scale(1.0857);
    transform: scale(1.0857);
  }
  35% {
    -webkit-transform: scale(1.1538);
    transform: scale(1.1538);
  }
  40% {
    -webkit-transform: scale(1.0771);
    transform: scale(1.0771);
  }
  42% {
    -webkit-transform: scale(0.9954);
    transform: scale(0.9954);
  }
  45% {
    -webkit-transform: scale(0.9057);
    transform: scale(0.9057);
  }
  52% {
    -webkit-transform: scale(0.9908);
    transform: scale(0.9908);
  }
  56% {
    -webkit-transform: scale(1.0623);
    transform: scale(1.0623);
  }
  64% {
    -webkit-transform: scale(0.9845);
    transform: scale(0.9845);
  }
  100% {
    -webkit-transform: scale(1);
    transform: scale(1);
  }
}
.ldt-bounce-in {
  -webkit-transform: scale(0);
  transform: scale(0);
  -webkit-animation: ldt-bounce-in 1s ease-out forwards;
  animation: ldt-bounce-in 1s ease-out forwards;
}
</style></svg></svg>