<?xml version="1.0" encoding="utf-8"?>
<!-- Generator: Adobe Illustrator 21.0.0, SVG Export Plug-In . SVG Version: 6.00 Build 0)  -->
<svg version="1.1" id="Layer_1" xmlns="http://www.w3.org/2000/svg" xmlns:xlink="http://www.w3.org/1999/xlink" x="0px" y="0px"
	 viewBox="0 0 128 128" style="enable-background:new 0 0 128 128;" xml:space="preserve">
<style type="text/css">
	.st0{fill:#DDDDDD;}
	.st1{fill:#FFFFFF;}
</style>
<rect class="st0" width="128" height="128"/>
<path class="st1" d="M105.605,0L79.713,33.071c-4.475-0.591-9.65-0.928-15.67-0.928c-22.758,0-34.348,5.044-40.016,10.771
	c-5.16,5.214-7.953,11.712-7.953,21.372c0,9.659,2.791,16.071,7.952,21.287c2.214,2.237,5.34,4.4,9.726,6.205L5.392,128H22.64
	l25.448-32.579c4.571,0.638,9.836,1.009,15.954,1.009c23.18,0,34.349-5.129,39.933-10.771c5.16-5.214,7.953-11.712,7.953-21.372
	c0-9.746-2.791-16.158-7.952-21.372c-2.275-2.299-5.43-4.505-9.938-6.321L122.621,0H105.605z M43.304,79.575
	c-2.519-1.021-4.343-2.207-5.559-3.431c-2.605-2.621-4.453-6.003-4.453-12.431c0-6.427,1.596-9.894,4.368-12.684
	c3.445-3.467,11.258-6.257,26.381-6.257c2.305,0,4.378,0.087,6.344,0.213L43.304,79.575z M94.707,63.715
	c0,6.425-1.596,9.894-4.368,12.684c-3.527,3.549-11.173,6.255-26.296,6.255c-2.094,0-4.018-0.072-5.839-0.184l26.961-34.516
	c2.22,0.955,3.907,2.056,5.09,3.246C93.026,53.991,94.707,57.288,94.707,63.715z"/>
</svg>
