<?xml version="1.0" encoding="utf-8"?>
<!-- Generator: Adobe Illustrator 21.0.0, SVG Export Plug-In . SVG Version: 6.00 Build 0)  -->
<svg version="1.1" id="Layer_1" xmlns="http://www.w3.org/2000/svg" xmlns:xlink="http://www.w3.org/1999/xlink" x="0px" y="0px"
	 viewBox="0 0 100 100" style="enable-background:new 0 0 100 100;" xml:space="preserve">
<style type="text/css">
	.st0{fill:#C42026;}
	.st1{fill:#010101;}
</style>
<g>
	<g>
		<path class="st0" d="M49.802,44.491l-9.026,9.026l40.197,31.471c3.01-2.994,5.646-6.363,7.835-10.03L49.802,44.491z"/>
	</g>
	<g id="XMLID_6_">
		<path class="st1" d="M25.305,12.467c-5.298,5.243-10.113,15.331-10.113,37.493c0,21.368,4.736,32.251,10.113,37.573
			C30.201,92.379,36.301,95,45.371,95s15.09-2.621,19.986-7.467c5.298-5.243,10.194-15.808,10.194-37.573
			S70.735,17.71,65.438,12.467C60.542,7.621,54.442,5,45.371,5C36.221,5,30.201,7.621,25.305,12.467z M62.617,49.961
			c0,14.199-2.938,21.535-6.114,24.691c-2.461,2.446-5.637,4.181-11.671,4.181s-9.289-1.499-11.909-4.102
			c-3.255-3.235-5.875-10.571-5.875-24.77s2.699-21.299,6.034-24.612c2.62-2.604,5.717-4.181,11.751-4.181s9.289,1.499,11.909,4.102
			C60.076,28.583,62.617,35.761,62.617,49.961z"/>
	</g>
</g>
</svg>
